PathFileType	4	(X/Y/Z)	C:/Users/opensim2020/Desktop/walking_exp_matlab/subject02_walking10_straight_03.trc	
DataRate	CameraRate	NumFrames	NumMarkers	Units	OrigDataRate	OrigDataStartFrame	OrigNumFrames	
100.00	100.00	8	43	mm	100.00	2392	270	
Frame#	Time	LFHD			RFHD			LBHD			RBHD			C7			T10			CLAV			STRN			RBAK			LSHO			LUPA			LELB			LFRM			LWRA			LWRB			LFIN			RSHO			RUPA			RELB			RFRM			RWRA			RWRB			RFIN			LASI			RASI			LPSI			RPSI			LTHI			LKNE			LTIB			LANK			LHEE			LTOE			RTHI			RKNE			RTIB			RANK			RHEE			RTOE			*39			*40			*41			*42			
		X1	Y1	Z1	X2	Y2	Z2	X3	Y3	Z3	X4	Y4	Z4	X5	Y5	Z5	X6	Y6	Z6	X7	Y7	Z7	X8	Y8	Z8	X9	Y9	Z9	X10	Y10	Z10	X11	Y11	Z11	X12	Y12	Z12	X13	Y13	Z13	X14	Y14	Z14	X15	Y15	Z15	X16	Y16	Z16	X17	Y17	Z17	X18	Y18	Z18	X19	Y19	Z19	X20	Y20	Z20	X21	Y21	Z21	X22	Y22	Z22	X23	Y23	Z23	X24	Y24	Z24	X25	Y25	Z25	X26	Y26	Z26	X27	Y27	Z27	X28	Y28	Z28	X29	Y29	Z29	X30	Y30	Z30	X31	Y31	Z31	X32	Y32	Z32	X33	Y33	Z33	X34	Y34	Z34	X35	Y35	Z35	X36	Y36	Z36	X37	Y37	Z37	X38	Y38	Z38	X39	Y39	Z39	X40	Y40	Z40	X41	Y41	Z41	X42	Y42	Z42	X43	Y43	Z43	

203	2.020	1497.19165	579.98138	1746.60095	1637.96069	591.14618	1717.01099	1495.33020	444.55322	1681.17249	1635.27991	442.34503	1650.71069	1562.20471	388.14532	1536.07813	1570.09473	329.43594	1259.80164	1536.14099	524.35217	1463.22388	1537.44312	571.90082	1290.73267	1630.79919	331.89740	1362.33789	1374.63379	445.12079	1513.45862	1292.83838	416.91983	1314.58630	1283.84070	401.85544	1174.18677	1268.07068	401.57324	1042.96960	1293.77258	450.73651	912.36310	1261.50354	404.01797	919.18567	1260.84119	417.27081	851.97540	1738.31653	483.97308	1494.66199	1825.80261	468.69141	1302.41003	1840.44019	486.77576	1156.97351	1859.01697	522.48743	1043.08630	1839.63818	576.77765	919.70801	1873.57898	531.39868	913.85858	1877.44702	573.38605	854.76746	1409.60681	544.54706	1000.58154	1663.59851	573.44287	987.27728	1512.67017	346.05814	1037.87244	1627.81726	353.13516	1039.74316	1337.68140	520.62695	692.03400	1349.00146	531.65649	502.39111	1367.14282	413.60556	356.84402	1397.38110	335.36664	148.79376	1458.46301	311.37256	127.27236	1336.39111	448.32324	62.11292	1726.81836	510.05261	677.96393	1681.07263	511.67239	468.99332	1684.27148	472.05008	283.78458	1640.32629	453.00446	92.26981	1585.80774	416.26691	40.09460	1653.01196	605.53583	39.28656	1600.21265	491.13400	1810.79883	-3360.30493	2845.24243	1034.15930						 
204	2.030	1496.51648	587.80396	1746.53540	1637.30774	599.84827	1717.39526	1495.82190	452.19485	1681.55835	1635.85938	450.83472	1651.53247	1563.41357	395.83917	1536.75500	1571.61462	336.54187	1260.56665	1536.66711	531.83093	1463.56396	1538.53442	579.21411	1291.09082	1632.98523	339.89758	1363.25671	1375.41553	451.34262	1513.30847	1293.98230	420.02292	1315.05652	1285.19971	404.63846	1174.51294	1269.08801	402.53543	1043.32202	1294.88733	450.44138	912.24255	1262.72913	403.75821	919.57611	1261.84131	416.55377	852.31769	1738.94739	492.88742	1495.76660	1827.32239	479.85767	1303.74463	1842.39502	499.39859	1158.55884	1860.37158	536.41431	1044.91089	1840.26721	591.71436	922.07056	1874.73865	546.66785	915.57275	1878.07153	589.45386	857.12134	1411.67273	552.17084	1001.70013	1665.43921	579.60773	987.14777	1512.96265	353.07968	1039.06165	1628.03931	359.50092	1040.05432	1337.89978	529.81696	693.57086	1350.08008	542.98590	503.08679	1368.43665	430.42944	352.32782	1398.14368	361.46716	140.79596	1459.31836	338.18738	118.46182	1336.76355	477.56921	59.62670	1727.20984	514.54602	678.06403	1681.40479	513.82465	468.93491	1684.17944	472.69705	283.89383	1640.17163	453.15027	92.45070	1585.68982	416.72647	39.64155	1653.29626	605.71832	39.54454	1599.83813	499.80960	1811.27539	-3360.23755	2845.18335	1034.30750						 
205	2.040	1495.77917	595.60474	1746.34985	1636.57971	608.48145	1717.62073	1495.94983	459.78690	1681.66016	1636.59509	459.43729	1652.35632	1564.63123	403.57132	1537.26172	1572.72363	343.63120	1260.92114	1537.14587	539.29565	1463.82520	1539.60071	586.49396	1291.35168	1634.98767	346.32590	1364.16199	1376.44983	457.81705	1513.23816	1295.20972	423.70657	1315.17529	1286.61865	407.23239	1174.92261	1270.69531	404.49091	1043.83813	1295.80200	450.21411	912.17694	1263.54639	403.32721	919.86273	1262.62952	415.66153	852.71820	1739.51917	501.75934	1496.74353	1828.60034	490.80542	1304.80054	1843.98633	511.83209	1159.90308	1861.69006	550.39172	1046.72046	1840.62610	606.52020	924.27881	1875.96082	562.22864	917.57611	1878.53284	605.55945	859.42926	1413.60449	559.86224	1002.49347	1667.19568	585.75452	986.82953	1513.04980	359.99304	1039.97083	1628.16663	365.81476	1040.35034	1338.24329	538.68335	694.99152	1351.32288	553.82245	503.52722	1369.64185	447.24719	347.69089	1398.56750	387.76157	132.97595	1459.87061	366.08713	109.27166	1337.01245	507.25415	57.07758	1727.33411	518.59021	677.83197	1681.47131	515.91174	468.68216	1684.11536	473.51331	284.00488	1640.03052	453.26239	92.56282	1585.28882	416.47250	40.21641	1653.23096	605.63403	39.36563	1599.46130	508.57050	1811.75354	-3360.40332	2845.19824	1034.06335						 
206	2.050	1494.93506	603.41974	1746.03735	1635.73999	617.05817	1717.77112	1496.37415	467.39432	1681.93762	1636.62988	467.61508	1652.95007	1565.70325	411.27652	1537.64111	1573.97681	350.71072	1261.62732	1537.56787	546.72076	1463.98059	1540.58118	593.78314	1291.52185	1636.95459	354.45236	1364.99805	1377.28857	464.04037	1512.94580	1296.40076	427.54950	1315.23206	1287.92249	410.04968	1175.17627	1271.79370	404.97443	1044.11987	1296.35034	450.04053	912.04889	1265.03577	402.99719	920.19727	1263.13745	414.99948	853.08990	1739.71191	510.46231	1497.52112	1829.93726	501.77744	1305.91223	1845.19873	524.14502	1160.94995	1862.48218	564.13214	1048.21631	1840.87573	621.36810	926.55188	1876.91956	577.62933	919.38489	1878.80994	621.63495	861.65405	1415.32214	567.51849	1003.14783	1668.76929	591.94489	986.39868	1513.03723	366.86377	1040.81494	1628.18689	372.14832	1040.58533	1338.67688	547.38910	696.20691	1352.73694	564.09375	503.78424	1370.64685	463.98349	342.91663	1398.71045	414.28510	125.15118	1460.00671	393.96942	100.69730	1337.23999	537.56488	55.40730	1727.37695	521.83478	677.51050	1681.52832	518.20752	468.39969	1684.08008	474.68106	284.16260	1639.90527	453.47498	92.72678	1585.09277	416.51111	40.39902	1653.41968	605.72229	39.47618	1598.96667	517.30438	1812.15613	-3360.40332	2845.19824	1034.06372						 
207	2.060	1493.90405	610.98999	1745.60303	1634.71484	625.56934	1717.81311	1496.55786	474.84381	1681.96179	1636.90613	476.01706	1653.49805	1566.39746	418.66995	1537.75195	1574.97473	357.71301	1262.07178	1537.92932	554.11603	1464.04712	1541.48401	601.05634	1291.54102	1638.36743	362.46136	1365.35547	1378.05957	470.25394	1512.63965	1297.43567	430.67984	1315.53784	1289.31885	412.79361	1175.48560	1272.89551	406.11658	1044.48157	1296.60632	450.04953	911.97382	1265.70874	402.87589	920.67590	1263.40857	414.37030	853.54980	1740.34705	519.10431	1498.43750	1831.30396	512.75781	1307.06384	1846.51636	536.52417	1162.14941	1863.57922	578.07184	1049.98706	1840.85645	635.97607	928.64587	1877.69495	593.06378	921.17224	1878.92786	637.72101	863.92090	1416.78699	575.15717	1003.56989	1670.16260	598.14337	985.91937	1512.95679	373.68698	1041.45349	1628.18335	378.52994	1040.85376	1338.99585	555.87225	697.19696	1354.20129	574.00616	503.77460	1371.54175	480.78876	338.09195	1398.54907	441.25415	118.01166	1460.23804	422.15747	92.67065	1337.01257	567.65649	53.77642	1727.04382	525.75568	677.13397	1681.56458	520.72748	468.14493	1684.01563	476.03104	284.20380	1639.81067	453.71484	92.88216	1584.98413	416.60919	40.44802	1653.38611	605.65265	39.30611	1598.20886	525.85779	1812.33459	-3357.42847	2845.89087	1034.24463						 
208	2.070	1492.82288	618.63116	1745.08118	1633.64111	634.08160	1717.79944	1496.45166	482.25955	1681.72351	1637.34546	484.52036	1653.97180	1567.43591	426.26907	1538.01941	1575.74597	364.77954	1262.27710	1538.20142	561.47791	1463.97656	1542.36206	608.29883	1291.50281	1639.46387	370.21350	1365.51318	1378.63977	476.31155	1512.14612	1298.50232	434.14200	1315.39880	1290.56055	415.58038	1175.63733	1273.91614	407.10907	1044.85535	1296.64697	450.22504	911.88409	1266.45349	402.68304	921.07098	1263.29224	413.65762	854.17670	1740.60852	527.60010	1498.93225	1832.31958	523.46454	1307.93994	1847.53748	548.87640	1163.17139	1864.23608	591.86340	1051.52100	1840.83301	650.89642	930.92932	1878.38721	608.57483	922.97003	1878.89880	653.75165	866.11011	1417.98059	582.62720	1003.77930	1671.39124	604.39954	985.30804	1512.70923	380.46686	1041.77490	1628.04663	384.97260	1040.89368	1339.45642	564.16284	698.01965	1355.72144	583.65668	503.56436	1372.21667	497.68857	333.17999	1398.04211	468.33521	111.39466	1459.39600	450.28333	85.14393	1336.58826	597.56177	52.57362	1727.26062	530.03473	677.14410	1681.69702	523.37109	467.95932	1683.88611	477.57550	284.22534	1639.89270	454.15512	93.20635	1584.77856	416.50311	40.70790	1653.37988	605.61401	39.17360	1597.74512	534.56720	1812.63794	-3360.31665	2845.08057	1034.17017						 
209	2.080	1491.65625	626.18579	1744.47046	1632.38257	642.48792	1717.66614	1496.59473	489.70743	1681.62244	1637.53809	492.72964	1654.43665	1568.00061	433.72321	1537.91675	1576.40320	371.79019	1262.43262	1538.45386	568.81403	1463.82715	1543.12305	615.53308	1291.32336	1640.78772	378.19934	1365.83289	1379.24500	482.51871	1511.65588	1299.90381	439.10983	1315.15198	1291.77002	418.52789	1175.80701	1274.59888	408.32947	1045.08765	1296.45996	450.49292	911.78656	1267.21033	402.54681	921.49866	1263.43677	412.82309	854.41071	1740.65234	535.96008	1499.35657	1832.94312	533.90009	1308.59790	1848.56628	561.09497	1164.17480	1864.50037	605.49536	1052.86731	1840.54272	665.39014	933.01691	1878.68140	623.76563	924.56555	1878.71680	669.73151	868.31067	1418.81836	590.13171	1003.87317	1672.40210	610.77606	984.68799	1512.64697	387.14438	1042.21289	1627.92419	391.44696	1040.85718	1340.18115	572.44556	698.75604	1357.12708	593.14996	503.05161	1372.85376	514.78186	328.48715	1397.23596	495.59589	105.59356	1458.66589	478.67316	78.67903	1335.82239	627.25171	51.73837	1727.17065	534.21899	676.85626	1681.49109	526.15552	467.59973	1683.95007	479.10449	284.36105	1639.73071	454.40384	93.36312	1584.53613	416.60770	40.81377	1653.52063	605.69702	39.21636	1596.62048	542.85315	1812.53345	-3360.31860	2845.22314	1034.05884						 
210	2.090	1490.29138	633.56909	1743.74475	1631.02112	650.72437	1717.44324	1496.35608	496.89471	1681.10522	1637.17773	500.79617	1654.54321	1568.70398	441.17105	1537.84167	1576.93787	378.80957	1262.43018	1538.52930	576.08997	1463.52942	1543.80029	622.77911	1291.04980	1641.96960	385.76312	1366.04858	1379.92969	488.93243	1511.20483	1300.88745	442.82538	1314.97827	1292.92651	421.52530	1175.84253	1275.59521	410.32288	1045.37695	1296.03772	450.99841	911.82391	1268.12744	402.45200	921.80280	1263.48157	412.57983	855.14453	1740.97388	544.43054	1499.80273	1833.61694	544.35986	1309.27136	1849.69312	573.38959	1165.25696	1864.84570	619.09729	1054.29041	1840.07434	679.96863	935.06293	1878.99353	639.15204	926.28912	1878.22070	685.58228	870.41101	1419.37000	597.49042	1003.71344	1673.15442	617.20508	984.02979	1512.53503	393.86255	1042.26367	1627.77026	397.87354	1040.74097	1340.52356	580.31506	699.04504	1358.51099	602.49738	502.37695	1373.25745	531.90753	323.90204	1396.24854	522.68988	100.26434	1457.18127	506.34238	72.61238	1334.82703	656.67798	51.83195	1726.94141	538.38464	676.33417	1681.70959	528.96649	467.38748	1683.69067	480.72067	284.30017	1639.58093	454.72781	93.51486	1584.30627	416.70111	41.03946	1653.50342	605.68073	39.03562	1595.53198	551.12933	1812.36023	-3360.38354	2845.17358	1034.16370						 
